<svg width="26.000000" height="17.000000" viewBox="0 0 26 17" fill="none" xmlns="http://www.w3.org/2000/svg" xmlns:xlink="http://www.w3.org/1999/xlink">
	<desc>
			Created with Pixso.
	</desc>
	<defs/>
	<path id="Vector" d="M26 8C26 7.74 25.9 7.5 25.72 7.33C25.55 7.15 25.31 7.05 25.07 7.05L3.17 7.05L9.01 1.11C9.1 1.02 9.17 0.92 9.21 0.8C9.26 0.69 9.28 0.56 9.28 0.44C9.28 0.32 9.26 0.19 9.21 0.08C9.17 -0.04 9.1 -0.14 9.01 -0.23C8.92 -0.32 8.82 -0.39 8.71 -0.43C8.6 -0.48 8.48 -0.5 8.35 -0.5C8.23 -0.5 8.11 -0.48 8 -0.43C7.88 -0.39 7.78 -0.32 7.7 -0.23L0.27 7.33C0.18 7.41 0.11 7.52 0.07 7.63C0.02 7.75 0 7.87 0 8C0 8.12 0.02 8.24 0.07 8.36C0.11 8.47 0.18 8.58 0.27 8.66L7.7 16.22C7.78 16.31 7.88 16.38 8 16.42C8.11 16.47 8.23 16.5 8.35 16.5C8.48 16.5 8.6 16.47 8.71 16.42C8.82 16.38 8.92 16.31 9.01 16.22C9.1 16.13 9.17 16.03 9.21 15.91C9.26 15.8 9.28 15.67 9.28 15.55C9.28 15.43 9.26 15.3 9.21 15.19C9.17 15.07 9.1 14.97 9.01 14.88L3.17 8.94L25.07 8.94C25.31 8.94 25.55 8.84 25.72 8.66C25.9 8.49 26 8.25 26 8Z" fill="#FFFFFF" fill-opacity="1.000000" fill-rule="evenodd"/>
</svg>
